$ NASTRAN file exported by CADFEKO version 6.0.150187-x64
$
$ Filename: D:/Documents/FEKO/2coated_sphere/sphere_0.5r.nas
$ Date:     ÷‹Àƒ æ≈‘¬ 11 2014
$
$ Number of segments:             0
$           triangles:          644
$           cuboids:              0
$           tetrahedra:           0
GRID*                  1                 0.000000000E+00 0.000000000E+00       1
*      1-5.000000000E-01
GRID*                  2                 0.000000000E+00 0.000000000E+00       2
*      2 5.000000000E-01
GRID*                  3                 4.984479155E-01 7.489408363E-03       3
*      3-3.864691812E-02
GRID*                  4                 3.763503747E-01 3.290975863E-01       4
*      4-7.427930200E-03
GRID*                  5                -1.963753727E-02-4.992358209E-01       5
*      5 1.944125120E-02
GRID*                  6                 1.710091308E-02 4.984007303E-01       6
*      6 3.611469026E-02
GRID*                  7                -3.459733366E-01-3.609399590E-01       7
*      7-4.979594760E-03
GRID*                  8                -3.420242175E-01 3.645738031E-01       8
*      8 1.026531497E-02
GRID*                  9                -4.985826164E-01-3.753470165E-02       9
*      9-2.553583471E-03
GRID*                 10                 3.223794851E-01-7.438392571E-03      10
*     10-3.821205804E-01
GRID*                 11                 3.780730544E-01 2.400812395E-03      11
*     11 3.271926063E-01
GRID*                 12                 3.470129243E-01-2.586548698E-01      12
*     12 2.503591194E-01
GRID*                 13                 1.183854280E-01 3.325526970E-01      13
*     13-3.541095793E-01
GRID*                 14                 1.688113006E-01 3.167839779E-01      14
*     14 3.480670283E-01
GRID*                 15                 3.352274735E-01 2.030238296E-01      15
*     15 3.104897191E-01
GRID*                 16                -2.323830769E-01-3.230390844E-01      16
*     16 3.027273617E-01
GRID*                 17                -2.460563649E-02-3.273784085E-01      17
*     17-3.771179395E-01
GRID*                 18                 3.634442980E-01-3.400318862E-01      18
*     18 4.781797313E-02
GRID*                 19                 7.368767582E-03 3.347739035E-01      19
*     19-3.713113718E-01
GRID*                 20                 2.040897380E-01 4.564356606E-01      20
*     20 3.723783717E-03
GRID*                 21                -3.547835770E-01-1.251039447E-01      21
*     21-3.293594032E-01
GRID*                 22                -3.386781663E-01-2.087015854E-01      22
*     22 3.028873519E-01
GRID*                 23                -1.867945480E-01-4.637048736E-01      23
*     23 9.251328100E-03
GRID*                 24                -3.310780242E-01 1.456613622E-01      24
*     24-3.452102395E-01
GRID*                 25                -3.154420580E-01 1.914289945E-01      25
*     25 3.374185058E-01
GRID*                 26                -1.447144669E-01 3.530997359E-01      26
*     26 3.230763061E-01
GRID*                 27                -1.720155380E-01 4.669673473E-01      27
*     27-4.849898217E-02
GRID*                 28                -3.322649448E-01-3.033519960E-02      28
*     28-3.723973444E-01
GRID*                 29                -4.592391168E-01-1.977303829E-01      29
*     29-1.459214984E-03
GRID*                 30                 1.639674187E-01 3.481870118E-02      30
*     30-4.710651162E-01
GRID*                 31                 1.890199977E-01-1.816702780E-01      31
*     31 4.257550359E-01
GRID*                 32                 4.810112960E-01-2.543129848E-02      32
*     32 1.340946762E-01
GRID*                 33                 2.195615421E-01-6.101445195E-02      33
*     33 4.450505206E-01
GRID*                 34                 2.121235379E-01-4.405230041E-01      34
*     34 1.046092133E-01
GRID*                 35                 7.065620349E-02 1.710148935E-01      35
*     35-4.645014608E-01
GRID*                 36                 1.221049729E-01 4.562704593E-01      36
*     36-1.640354949E-01
GRID*                 37                 2.799935181E-01 3.678504217E-01      37
*     37-1.904985489E-01
GRID*                 38                 3.143050275E-01 1.829509353E-01      38
*     38-3.431345290E-01
GRID*                 39                 1.999215210E-01 1.049717029E-01      39
*     39 4.461079769E-01
GRID*                 40                 2.811618867E-01 3.727546510E-01      40
*     40 1.788909267E-01
GRID*                 41                 2.109886760E-02 2.067156842E-01      41
*     41 4.547784776E-01
GRID*                 42                 9.216482510E-02 4.506038468E-01      42
*     42 1.961168484E-01
GRID*                 43                 2.514698374E-01 3.666633434E-02      43
*     43 4.306024858E-01
GRID*                 44                 2.605376866E-01 2.639092252E-01      44
*     44 3.353685058E-01
GRID*                 45                 4.848194168E-01 1.213115938E-01      45
*     45-1.528496932E-02
GRID*                 46                 4.428877252E-01 2.317991083E-01      46
*     46-1.093783333E-02
GRID*                 47                -2.133109779E-01-1.008167134E-01      47
*     47 4.408337748E-01
GRID*                 48                -3.225035000E-01-3.469239392E-01      48
*     48 1.601101899E-01
GRID*                 49                -1.776202905E-01-4.432131317E-01      49
*     49 1.483682996E-01
GRID*                 50                 4.909621937E-03-4.759236659E-01      50
*     50-1.532075712E-01
GRID*                 51                -5.139099015E-02-1.788531636E-01      51
*     51-4.640802862E-01
GRID*                 52                 2.526115678E-01-2.632013468E-01      52
*     52-3.419246216E-01
GRID*                 53                 4.628683791E-01-1.890149504E-01      53
*     53-5.119781119E-03
GRID*                 54                 3.682185607E-01-3.023214411E-01      54
*     54 1.517130113E-01
GRID*                 55                 1.699452146E-01-4.701174602E-01      55
*     55 1.040181073E-02
GRID*                 56                -2.081488405E-02 1.973636969E-01      56
*     56-4.589273491E-01
GRID*                 57                 2.959689433E-01 4.029816780E-01      57
*     57-2.855134097E-03
GRID*                 58                 1.084351724E-01 4.878563675E-01      58
*     58 1.542653878E-02
GRID*                 59                -4.552303775E-01-1.132240545E-01      59
*     59-1.730480190E-01
GRID*                 60                -3.790691245E-01-2.655113283E-01      60
*     60-1.892361841E-01
GRID*                 61                -2.106835201E-01-2.852561520E-01      61
*     61-3.524789101E-01
GRID*                 62                -4.538281996E-01-9.706972415E-02      62
*     62 1.860576091E-01
GRID*                 63                -2.817626623E-01-1.460965710E-02      63
*     63 4.127909399E-01
GRID*                 64                -3.025949949E-01-2.703514661E-01      64
*     64 2.921409828E-01
GRID*                 65                -1.103576185E-01-4.868463163E-01      65
*     65-2.831713830E-02
GRID*                 66                -2.643066404E-01-4.244308767E-01      66
*     66 6.562794939E-04
GRID*                 67                -1.948285699E-01 8.431083684E-02      67
*     67-4.526958263E-01
GRID*                 68                -3.785326151E-01 2.723323865E-01      68
*     68-1.804110045E-01
GRID*                 69                -2.128695295E-01 3.064947958E-01      69
*     69-3.327874750E-01
GRID*                 70                -1.666099470E-01 2.009352836E-01      70
*     70 4.264576619E-01
GRID*                 71                -3.656281184E-01 2.810990046E-01      71
*     71 1.931306000E-01
GRID*                 72                -3.743287410E-01 2.546918828E-02      72
*     72 3.304985841E-01
GRID*                 73                -7.193990785E-02 2.043752359E-01      73
*     73 4.506167025E-01
GRID*                 74                -4.230353809E-02 3.597683518E-01      74
*     74 3.446406008E-01
GRID*                 75                -2.322736334E-01 2.594141131E-01      75
*     75 3.588220689E-01
GRID*                 76                -9.256625026E-02 4.908584670E-01      76
*     76 2.212362312E-02
GRID*                 77                -2.077300615E-01 4.248597062E-01      77
*     77 1.623035785E-01
GRID*                 78                -2.636370201E-01 4.248241404E-01      78
*     78-4.468936893E-03
GRID*                 79                -1.920247904E-01-3.599410705E-02      79
*     79-4.602509143E-01
GRID*                 80                -4.120402531E-01-2.831884844E-01      80
*     80-5.206936601E-03
GRID*                 81                -4.870933016E-01-1.128430502E-01      81
*     81-2.561549237E-03
GRID*                 82                -4.073764047E-01 2.894481820E-01      82
*     82 1.625468645E-02
GRID*                 83                -4.893435649E-01 1.026784231E-01      83
*     83-1.301813937E-04
GRID*                 84                 4.792162015E-01-1.067314064E-02      84
*     84-1.422600304E-01
GRID*                 85                 4.841118257E-01 7.828144922E-02      85
*     85-9.750771708E-02
GRID*                 86                 4.405392352E-01-6.446072230E-03      86
*     86-2.363971879E-01
GRID*                 87                 2.545214850E-01 1.042980160E-02      87
*     87-4.302441550E-01
GRID*                 88                 8.844868298E-02-1.927157150E-02      88
*     88-4.917371625E-01
GRID*                 89                 1.562518195E-01-6.548384883E-02      89
*     89 4.704224000E-01
GRID*                 90                 9.982803231E-02-1.491532108E-01      90
*     90 4.666772800E-01
GRID*                 91                 2.911215532E-01-2.160142759E-01      91
*     91 3.443632877E-01
GRID*                 92                 4.375187834E-01 8.709321075E-03      92
*     92 2.418707545E-01
GRID*                 93                 4.938517329E-01 5.274539028E-02      93
*     93 5.769219833E-02
GRID*                 94                 1.698936306E-01 1.012042677E-02      94
*     94 4.701422457E-01
GRID*                 95                 2.901969208E-01-9.197549137E-03      95
*     95 4.070640641E-01
GRID*                 96                 3.106037715E-04-1.201899231E-01      96
*     96 4.853393513E-01
GRID*                 97                 1.894208143E-01-2.748806225E-01      97
*     97 3.722370192E-01
GRID*                 98                 1.324796631E-01-4.710035789E-01      98
*     98 1.029794519E-01
GRID*                 99                 2.979812606E-01-3.824429128E-01      99
*     99 1.222480541E-01
GRID*                100                 3.039137021E-01-3.391939082E-01     100
*    100 2.063587998E-01
GRID*                101                 3.883751950E-01-1.298475322E-01     101
*    101 2.868873060E-01
GRID*                102                 7.519114891E-02 7.464946284E-02     102
*    102-4.886448084E-01
GRID*                103                 4.017068825E-02 2.593093058E-01     103
*    103-4.256113247E-01
GRID*                104                 1.651232626E-01 1.395967970E-01     104
*    104-4.508292830E-01
GRID*                105                 1.287798400E-01 4.168157674E-01     105
*    105-2.442956586E-01
GRID*                106                 3.822459106E-02 4.106264965E-01     106
*    106-2.827096762E-01
GRID*                107                 5.975948113E-02 4.898790660E-01     107
*    107-8.029511274E-02
GRID*                108                 1.595601666E-01 4.658277058E-01     108
*    108-8.686254503E-02
GRID*                109                 2.182196717E-01 3.557302505E-01     109
*    109-2.753836664E-01
GRID*                110                 1.978321524E-01 4.233256237E-01     110
*    110-1.779265461E-01
GRID*                111                 3.353071661E-01 3.587750381E-01     111
*    111-9.407218735E-02
GRID*                112                 3.527571604E-01 8.029817827E-02     112
*    112-3.451298138E-01
GRID*                113                 2.374851731E-01 2.722766859E-01     113
*    113-3.456388272E-01
GRID*                114                 3.322407238E-01 2.715070616E-01     114
*    114-2.567099860E-01
GRID*                115                 7.686910595E-02 1.163735496E-01     115
*    115 4.801544934E-01
GRID*                116                 1.957371209E-01 2.174833710E-01     116
*    116 4.054478546E-01
GRID*                117                 1.226625396E-01 7.995953422E-02     117
*    117 4.780798827E-01
GRID*                118                 2.711197055E-01 1.447375516E-01     118
*    118 3.943921227E-01
GRID*                119                 2.243934466E-01 3.573515537E-01     119
*    119 2.682302149E-01
GRID*                120                 3.009015528E-01 3.017480458E-01     120
*    120 2.615461190E-01
GRID*                121                 3.303826235E-01 3.657845804E-01     121
*    121 8.395810143E-02
GRID*                122                 2.474622793E-01 4.243419702E-01     122
*    122 9.325402225E-02
GRID*                123                 1.310559197E-01 3.948426572E-01     123
*    123 2.773510807E-01
GRID*                124                 1.921645956E-01 4.214860161E-01     124
*    124 1.882081466E-01
GRID*                125                 4.715481282E-02 4.836842000E-01     125
*    125 1.175840902E-01
GRID*                126                -1.545226672E-01-3.973027136E-02     126
*    126 4.738610037E-01
GRID*                127                -2.721569754E-01-1.489679876E-01     127
*    127 3.920958039E-01
GRID*                128                -1.310749736E-01-4.785436422E-01     128
*    128 6.176838878E-02
GRID*                129                 5.946751150E-02-4.686277934E-01     129
*    129 1.638645976E-01
GRID*                130                -2.445348686E-01-3.828450049E-01     130
*    130 2.088837004E-01
GRID*                131                -2.575664630E-01-4.063485025E-01     131
*    131 1.361631802E-01
GRID*                132                -2.754200203E-02-4.942982169E-01     132
*    132-7.007646437E-02
GRID*                133                -9.625270146E-02-4.765435501E-01     133
*    133-1.167975268E-01
GRID*                134                 2.098688055E-02-4.314454698E-01     134
*    134-2.518220750E-01
GRID*                135                -2.714698440E-02-2.664416150E-01     135
*    135-4.222225799E-01
GRID*                136                 5.633093859E-02-1.134208333E-01     136
*    136-4.836967438E-01
GRID*                137                 8.375613968E-02-3.114222730E-01     137
*    137-3.821008727E-01
GRID*                138                 3.374859063E-01-1.099527353E-01     138
*    138-3.521557312E-01
GRID*                139                 2.574410802E-01-9.455824228E-02     139
*    139-4.180703638E-01
GRID*                140                 3.278719395E-01-3.346761258E-01     140
*    140-1.746192490E-01
GRID*                141                 4.933943253E-01-7.345910742E-02     141
*    141 3.414380382E-02
GRID*                142                 4.790849862E-01-1.218628703E-01     142
*    142-7.501344459E-02
GRID*                143                 4.138550971E-01-2.802362209E-01     143
*    143-1.384265427E-02
GRID*                144                 4.255863253E-01-2.487180352E-01     144
*    144 8.375929007E-02
GRID*                145                 6.271961525E-02-4.922511686E-01     145
*    145 6.127835529E-02
GRID*                146                 2.775934265E-01-4.155974625E-01     146
*    146 1.485391291E-02
GRID*                147                 8.029452887E-02-4.892721112E-01     147
*    147-6.454138107E-02
GRID*                148                -1.559079221E-02 9.235316852E-02     148
*    148-4.911494879E-01
GRID*                149                -8.718192297E-02-6.762806924E-02     149
*    149-4.876738219E-01
GRID*                150                -2.529504220E-01-1.051385232E-02     150
*    150-4.311676506E-01
GRID*                151                -1.362930100E-01-1.435455226E-01     151
*    151-4.591501915E-01
GRID*                152                -4.156504735E-01-1.212867823E-01     152
*    152-2.500483960E-01
GRID*                153                -4.038234790E-01-3.948827055E-02     153
*    153-2.921767861E-01
GRID*                154                -4.870766550E-01-5.818551198E-02     154
*    154-9.680278058E-02
GRID*                155                -4.660323674E-01-1.552972450E-01     155
*    155-9.325555352E-02
GRID*                156                -3.680734296E-01-2.030141463E-01     156
*    156-2.707530366E-01
GRID*                157                -4.272356691E-01-1.866033656E-01     157
*    157-1.806899749E-01
GRID*                158                -3.778995467E-01-3.127940613E-01     158
*    158-9.670474575E-02
GRID*                159                -1.131133950E-01-3.503208897E-01     159
*    159-3.383498694E-01
GRID*                160                -2.914818150E-01-2.132595992E-01     160
*    160-3.457726057E-01
GRID*                161                -3.037095989E-01-2.784009164E-01     161
*    161-2.832903268E-01
GRID*                162                -3.843646529E-01-1.324268126E-01     162
*    162 2.910789462E-01
GRID*                163                -4.889319567E-01-6.462616628E-02     163
*    163 8.227393503E-02
GRID*                164                -4.664927192E-01-1.535317606E-01     164
*    164 9.387513734E-02
GRID*                165                -1.017021612E-01 3.423135588E-02     165
*    165 4.883491422E-01
GRID*                166                -3.140915325E-01 9.084902040E-02     166
*    166 3.782763074E-01
GRID*                167                -3.131772273E-01-3.137879466E-01     167
*    167 2.312080208E-01
GRID*                168                -3.030164269E-01-3.902689143E-01     168
*    168 7.662388354E-02
GRID*                169                -9.049603042E-02 4.088219548E-02     169
*    169-4.900399112E-01
GRID*                170                -2.925560802E-01 7.054697033E-02     170
*    170-3.992919545E-01
GRID*                171                -1.202780288E-01 1.654385213E-01     171
*    171-4.562491550E-01
GRID*                172                -3.743056032E-01 3.211584652E-01     172
*    172-8.217393528E-02
GRID*                173                -4.307970352E-01 2.412678240E-01     173
*    173-7.876389761E-02
GRID*                174                -3.610599423E-01 2.130388332E-01     174
*    174-2.724888504E-01
GRID*                175                -1.124218241E-01 3.266657037E-01     175
*    175-3.614565693E-01
GRID*                176                -2.738116843E-01 2.328209350E-01     176
*    176-3.475939783E-01
GRID*                177                -3.041299740E-01 2.880501327E-01     177
*    177-2.730056409E-01
GRID*                178                -4.393028732E-02 1.134173982E-01     178
*    178 4.849810549E-01
GRID*                179                -1.167600372E-01 2.881088012E-01     179
*    179 3.916125794E-01
GRID*                180                -3.636659688E-01 2.140690995E-01     180
*    180 2.681818110E-01
GRID*                181                -3.601160650E-01 3.315762525E-01     181
*    181 1.018509132E-01
GRID*                182                -4.171965929E-01 2.505227051E-01     182
*    182 1.148275972E-01
GRID*                183                -4.212232267E-01-3.516877301E-02     183
*    183 2.670845384E-01
GRID*                184                 3.489642856E-02 4.090781116E-01     184
*    184 2.853722795E-01
GRID*                185                -1.265712343E-02 2.804538401E-01     185
*    185 4.137456233E-01
GRID*                186                -3.005140466E-01 2.841295865E-01     186
*    186 2.810012204E-01
GRID*                187                -1.885739474E-01 4.593835357E-01     187
*    187 5.836637289E-02
GRID*                188                -1.313527950E-01 4.250756001E-01     188
*    188 2.281604204E-01
GRID*                189                -3.735850742E-01-3.221458954E-01     189
*    189 8.158562600E-02
GRID*                190                 4.588942303E-01 1.732625162E-01     190
*    190-9.693392515E-02
GRID*                191                 4.639603488E-01 1.031883665E-01     191
*    191 1.552190572E-01
GRID*                192                 3.083365160E-01-1.080867932E-01     192
*    192 3.784783191E-01
GRID*                193                -1.281961210E-01-1.738641209E-01     193
*    193 4.509290654E-01
GRID*                194                -6.894134670E-02-3.064240743E-01     194
*    194 3.890390435E-01
GRID*                195                 2.623522345E-01-3.205425449E-01     195
*    195 2.800424646E-01
GRID*                196                 4.200829310E-01-2.021620829E-01     196
*    196 1.807230570E-01
GRID*                197                 2.302667238E-01 9.293060764E-02     197
*    197-4.339828776E-01
GRID*                198                -2.872819866E-02 4.974450978E-01     198
*    198-4.150982092E-02
GRID*                199                 5.213108329E-02 4.590921633E-01     199
*    199-1.910935262E-01
GRID*                200                 2.514551353E-01 4.221466074E-01     200
*    200-9.253408434E-02
GRID*                201                 2.414470714E-01 1.768540719E-01     201
*    201-4.005320823E-01
GRID*                202                 3.611849597E-01 3.036809560E-01     202
*    202-1.652976159E-01
GRID*                203                 4.153230533E-01 2.135408885E-01     203
*    203-1.786254470E-01
GRID*                204                 1.308431502E-01 1.742240234E-01     204
*    204 4.500289543E-01
GRID*                205                 3.384468347E-01 8.895362596E-02     205
*    205 3.571288178E-01
GRID*                206                 4.088115823E-01 1.284078863E-01     206
*    206 2.576519065E-01
GRID*                207                 3.558887002E-01 3.090043707E-01     207
*    207 1.669117489E-01
GRID*                208                -8.474643354E-02 4.772090723E-01     208
*    208 1.228395024E-01
GRID*                209                 1.518440249E-01 4.649840515E-01     209
*    209 1.036012739E-01
GRID*                210                -8.042061334E-02-7.328289889E-02     210
*    210 4.880185874E-01
GRID*                211                -3.344534618E-01-7.313484847E-02     211
*    211 3.644066078E-01
GRID*                212                 1.486692827E-01-4.388738699E-01     212
*    212 1.878487975E-01
GRID*                213                -5.458431059E-02-4.775763548E-01     213
*    213 1.376276803E-01
GRID*                214                -2.205282325E-01-4.409478875E-01     214
*    214 8.326018971E-02
GRID*                215                -1.973982603E-01-4.534724080E-01     215
*    215-7.346224908E-02
GRID*                216                -8.801199595E-04-3.823899447E-01     216
*    216-3.221446190E-01
GRID*                217                 3.899711306E-01-7.945827167E-03     217
*    217-3.128248410E-01
GRID*                218                 1.769297443E-01-6.282017396E-02     218
*    218-4.634107156E-01
GRID*                219                 2.533990923E-01-1.844449795E-01     219
*    219-3.895753451E-01
GRID*                220                 2.922238053E-01-3.020714827E-01     220
*    220-2.708469439E-01
GRID*                221                 3.441776994E-01-3.547646158E-01     221
*    221-7.539083935E-02
GRID*                222                 4.210736042E-01-2.413334976E-01     222
*    222-1.202296252E-01
GRID*                223                 2.269464885E-01-4.287406417E-01     223
*    223-1.211476518E-01
GRID*                224                -1.130326073E-01-2.218394721E-01     224
*    224-4.336022121E-01
GRID*                225                -3.726041592E-01 5.374628148E-02     225
*    225-3.290554327E-01
GRID*                226                -4.970761587E-01 2.434135249E-02     226
*    226-4.819534180E-02
GRID*                227                -4.555752209E-01-4.491356939E-02     227
*    227-2.010820465E-01
GRID*                228                -4.289469209E-01-2.384916207E-01     228
*    228-9.553159652E-02
GRID*                229                -1.959471035E-01-2.178795576E-01     229
*    229-4.051335965E-01
GRID*                230                -3.236733623E-01-3.372176184E-01     230
*    230-1.775382561E-01
GRID*                231                -1.941232414E-01-3.572678143E-01     231
*    231-2.909911958E-01
GRID*                232                -4.968966712E-01 2.151835004E-02     232
*    232 5.128994819E-02
GRID*                233                -4.162530394E-01-1.901020766E-01     233
*    233 2.014810355E-01
GRID*                234                -1.511771775E-01 1.383232218E-01     234
*    234 4.560834872E-01
GRID*                235                -2.407144793E-01 1.477651048E-01     235
*    235 4.125797053E-01
GRID*                236                -3.554574241E-01-2.560995617E-01     236
*    236 2.409627236E-01
GRID*                237                -2.299901106E-01 1.573281572E-01     237
*    237-4.151534656E-01
GRID*                238                -1.748383227E-01 2.519191331E-01     238
*    238-3.949282356E-01
GRID*                239                -4.675514054E-01 1.563115513E-01     239
*    239-8.344089058E-02
GRID*                240                -4.267060629E-01 1.911659189E-01     240
*    240-1.771370298E-01
GRID*                241                -6.071782716E-02 3.970925389E-01     241
*    241-2.977093566E-01
GRID*                242                -3.212796061E-01 3.419411719E-01     242
*    242-1.727878749E-01
GRID*                243                -3.790360268E-01 1.249402161E-01     243
*    243 3.012003200E-01
GRID*                244                -2.822924724E-01 4.023073440E-01     244
*    244 9.197695910E-02
GRID*                245                -4.614743001E-01 1.898549444E-01     245
*    245 3.156850411E-02
GRID*                246                -4.074432011E-01 2.168106860E-01     246
*    246 1.923100734E-01
GRID*                247                -4.736276578E-01-1.687986828E-03     247
*    247 1.602310596E-01
GRID*                248                 6.413111824E-02 3.510461186E-01     248
*    248 3.502196772E-01
GRID*                249                -6.250114609E-02 4.085480847E-01     249
*    249 2.813930866E-01
GRID*                250                -2.232404984E-01 3.583105363E-01     250
*    250 2.679127459E-01
GRID*                251                -4.310087004E-01-2.371174029E-01     251
*    251 8.948093329E-02
GRID*                252                 4.629554560E-01 1.742415688E-01     252
*    252 7.288430179E-02
GRID*                253                -1.643116149E-01-3.181926232E-01     253
*    253 3.489343029E-01
GRID*                254                -3.004160975E-02-2.310784179E-01     254
*    254 4.423802284E-01
GRID*                255                -6.555222748E-02-3.782623824E-01     255
*    255 3.203443078E-01
GRID*                256                 4.505086675E-01-1.008485152E-01     256
*    256 1.920195759E-01
GRID*                257                -8.710250942E-02 4.883171736E-01     257
*    257-6.292448535E-02
GRID*                258                 1.470782785E-01 2.380337335E-01     258
*    258-4.143765458E-01
GRID*                259                 2.968800990E-01 9.100259652E-02     259
*    259-3.918937793E-01
GRID*                260                 4.585200889E-01 9.645653961E-02     260
*    260-1.745149392E-01
GRID*                261                 4.039977712E-01 1.239186006E-01     261
*    261-2.672638795E-01
GRID*                262                 4.075278305E-01 2.743345229E-01     262
*    262-9.306791535E-02
GRID*                263                 3.680489492E-01 2.486134158E-01     263
*    263 2.296330562E-01
GRID*                264                -1.843608378E-02 4.545357814E-01     264
*    264 2.075026127E-01
GRID*                265                 2.220188887E-01-4.008540698E-01     265
*    265 2.000590607E-01
GRID*                266                 9.552090640E-02-1.139931163E-01     266
*    266-4.773691715E-01
GRID*                267                 1.954909988E-01-3.288714126E-01     267
*    267-3.219112663E-01
GRID*                268                 3.279953325E-01-2.103483004E-01     268
*    268-3.133251576E-01
GRID*                269                 4.482589669E-01-1.269540151E-01     269
*    269-1.815119188E-01
GRID*                270                 1.200608829E-01-4.462230758E-01     270
*    270-1.909721211E-01
GRID*                271                -4.381478579E-01 4.148569925E-02     271
*    271-2.372875711E-01
GRID*                272                -2.600221250E-01-1.198468902E-01     272
*    272-4.099087916E-01
GRID*                273                -1.304826047E-01-2.744582882E-01     273
*    273-3.970477779E-01
GRID*                274                -2.994303132E-01-3.912510091E-01     274
*    274-8.522989745E-02
GRID*                275                -9.186965574E-02-4.075228223E-01     275
*    275-2.747455472E-01
GRID*                276                -2.534039426E-01-3.659211842E-01     276
*    276-2.277896592E-01
GRID*                277                -2.224991531E-01 6.055519463E-02     277
*    277 4.436521107E-01
GRID*                278                -6.863227809E-02 2.695035269E-01     278
*    278-4.155207088E-01
GRID*                279                -3.175600021E-01 3.781719747E-01     279
*    279-7.836837761E-02
GRID*                280                -1.589461586E-01 3.722646047E-01     280
*    280-2.935220312E-01
GRID*                281                -2.481527654E-01 3.529358084E-01     281
*    281-2.526984768E-01
GRID*                282                -2.968411631E-01 3.564676396E-01     282
*    282 1.865908513E-01
GRID*                283                -4.142533235E-01 1.613396987E-01     283
*    283 2.288311290E-01
GRID*                284                 9.925772456E-02 2.709768494E-01     284
*    284 4.083129329E-01
GRID*                285                -3.757878503E-01-2.832651665E-01     285
*    285 1.689506941E-01
GRID*                286                 4.076342746E-01 2.790287001E-01     286
*    286 7.731288837E-02
GRID*                287                -2.424313226E-01-2.362934611E-01     287
*    287 3.679571362E-01
GRID*                288                -5.295349110E-03-3.456327215E-01     288
*    288 3.612616519E-01
GRID*                289                -1.732281937E-02-4.365872694E-01     289
*    289 2.430873838E-01
GRID*                290                -1.343087427E-01-4.107064105E-01     290
*    290 2.515579575E-01
GRID*                291                 4.674798291E-01-1.434092956E-01     291
*    291 1.043857430E-01
GRID*                292                -2.419690753E-02 4.842590050E-01     292
*    292-1.220971978E-01
GRID*                293                 4.198299324E-01 2.237409222E-01     293
*    293 1.538922597E-01
GRID*                294                 8.170018366E-02-4.206881715E-01     294
*    294 2.575782258E-01
GRID*                295                 1.723656962E-01-1.611709020E-01     295
*    295-4.408106250E-01
GRID*                296                 2.193406967E-01-3.855811930E-01     296
*    296-2.306876727E-01
GRID*                297                 3.823031827E-01-2.306343040E-01     297
*    297-2.250602015E-01
GRID*                298                -4.055093027E-01 1.283457392E-01     298
*    298-2.628489616E-01
GRID*                299                -4.784564020E-01 2.669194563E-02     299
*    299-1.427130389E-01
GRID*                300                -7.812003561E-02-4.469483128E-01     300
*    300-2.100820452E-01
GRID*                301                -2.454726901E-01 4.270913348E-01     301
*    301-8.565132893E-02
GRID*                302                -4.405085007E-01 7.722279528E-02     302
*    302 2.235819776E-01
GRID*                303                -4.486325776E-01 1.646432642E-01     303
*    303 1.470421909E-01
GRID*                304                -1.648032892E-01-2.210185606E-01     304
*    304 4.171218908E-01
GRID*                305                 3.580719544E-02-2.754535891E-01     305
*    305 4.157441100E-01
GRID*                306                -3.756086685E-02 4.515876515E-01     306
*    306-2.113238611E-01
GRID*                307                 1.781775647E-02-3.915981191E-01     307
*    307 3.103762889E-01
GRID*                308                 1.649222145E-01-3.764406974E-01     308
*    308 2.847684402E-01
GRID*                309                 1.646836695E-01-2.529806797E-01     309
*    309-3.985976226E-01
GRID*                310                 7.068660230E-02-2.049477896E-01     310
*    310-4.505549998E-01
GRID*                311                 1.095572052E-01-3.944804937E-01     311
*    311-2.870232724E-01
GRID*                312                 4.014190802E-01-1.197169736E-01     312
*    312-2.730028722E-01
GRID*                313                -4.845484571E-01 8.466038301E-02     313
*    313-8.969622231E-02
GRID*                314                -1.597799141E-01-4.460980075E-01     314
*    314-1.595836668E-01
GRID*                315                -1.736331016E-01-4.134743852E-01     315
*    315-2.211119147E-01
GRID*                316                -2.653592249E-01 3.938752040E-01     316
*    316-1.563547423E-01
GRID*                317                -4.797157188E-01 9.334084888E-02     317
*    317 1.056423925E-01
GRID*                318                 8.402138725E-02-3.586624315E-01     318
*    318 3.380852950E-01
GRID*                319                -4.588738486E-01 1.069153434E-01     319
*    319-1.673436597E-01
GRID*                320                -2.458546806E-01-4.070626983E-01     320
*    320-1.544520498E-01
GRID*                321                -2.001252233E-01 3.979880130E-01     321
*    321-2.270582227E-01
GRID*                322                -1.287654889E-01 4.303419072E-01     322
*    322-2.196025768E-01
GRID*                323                -1.104800968E-01 4.682036624E-01     323
*    323-1.363065617E-01
GRID*                324                -1.902015701E-01 4.384467751E-01     324
*    324-1.469278332E-01
CTRIA3         1     773      85       3      84
CTRIA3         2     773       3      85      45
CTRIA3         3     773      89      31      33
CTRIA3         4     773      31      90     305
CTRIA3         5     773       2      90      89
CTRIA3         6     773      90      31      89
CTRIA3         7     773      91      12     101
CTRIA3         8     773     206      11      92
CTRIA3         9     773      93       3      45
CTRIA3        10     773      94      33      43
CTRIA3        11     773      94       2      89
CTRIA3        12     773      33      94      89
CTRIA3        13     773      33      95      43
CTRIA3        14     773       2      96      90
CTRIA3        15     773      31      97      91
CTRIA3        16     773      97      31     305
CTRIA3        17     773      34      98      55
CTRIA3        18     773      99      18      54
CTRIA3        19     773      12     100      54
CTRIA3        20     773      54     100      99
CTRIA3        21     773      11     101      92
CTRIA3        22     773       1     102      88
CTRIA3        23     773      13     103      19
CTRIA3        24     773     103      35      56
CTRIA3        25     773      35     104     102
CTRIA3        26     773      13     106     105
CTRIA3        27     773     106      13      19
CTRIA3        28     773     107       6      58
CTRIA3        29     773     108      36     107
CTRIA3        30     773      58     108     107
CTRIA3        31     773      20     108      58
CTRIA3        32     773     109      13     105
CTRIA3        33     773      36     110     105
CTRIA3        34     773     110      36     108
CTRIA3        35     773     110      37     109
CTRIA3        36     773     105     110     109
CTRIA3        37     773       4     111      57
CTRIA3        38     773     113      13     109
CTRIA3        39     773     114      38     113
CTRIA3        40     773     109     114     113
CTRIA3        41     773      37     114     109
CTRIA3        42     773      14     116      44
CTRIA3        43     773       2     117     115
CTRIA3        44     773      39     118     116
CTRIA3        45     773     118      39      43
CTRIA3        46     773     118      15      44
CTRIA3        47     773     118      44     116
CTRIA3        48     773     119      14      44
CTRIA3        49     773      15     120      44
CTRIA3        50     773     120      40     119
CTRIA3        51     773      44     120     119
CTRIA3        52     773     121       4      57
CTRIA3        53     773     122      40     121
CTRIA3        54     773      57     122     121
CTRIA3        55     773      20     122      57
CTRIA3        56     773     123      14     119
CTRIA3        57     773     124      40     122
CTRIA3        58     773     124      42     123
CTRIA3        59     773     119     124     123
CTRIA3        60     773      40     124     119
CTRIA3        61     773       6     125      58
CTRIA3        62     773      94     117       2
CTRIA3        63     773       5     128      65
CTRIA3        64     773     128      23      65
CTRIA3        65     773      48     131     130
CTRIA3        66     773     131      49     130
CTRIA3        67     773     136       1      88
CTRIA3        68     773     137      17     135
CTRIA3        69     773     141       3      93
CTRIA3        70     773      53     142     141
CTRIA3        71     773     142       3     141
CTRIA3        72     773       3     142      84
CTRIA3        73     773      53     144     143
CTRIA3        74     773     144      18     143
CTRIA3        75     773      18     144      54
CTRIA3        76     773     145      55      98
CTRIA3        77     773     146      18      99
CTRIA3        78     773     147      55     145
CTRIA3        79     773      50     147     132
CTRIA3        80     773       5     147     145
CTRIA3        81     773     147       5     132
CTRIA3        82     773       1     148     102
CTRIA3        83     773     149       1     136
CTRIA3        84     773     150      67      79
CTRIA3        85     773     151      79     149
CTRIA3        86     773     153      21     152
CTRIA3        87     773      21     153      28
CTRIA3        88     773       9     154      81
CTRIA3        89     773      59     155     154
CTRIA3        90     773     155      29      81
CTRIA3        91     773     155      81     154
CTRIA3        92     773      21     156     152
CTRIA3        93     773     157      59     152
CTRIA3        94     773      59     157     155
CTRIA3        95     773      60     157     156
CTRIA3        96     773     157     152     156
CTRIA3        97     773     158       7      80
CTRIA3        98     773      21     160     156
CTRIA3        99     773      61     161     160
CTRIA3       100     773     161      60     156
CTRIA3       101     773     161     156     160
CTRIA3       102     773     163       9      81
CTRIA3       103     773     164      62     163
CTRIA3       104     773      81     164     163
CTRIA3       105     773      29     164      81
CTRIA3       106     773       2     165     126
CTRIA3       107     773     167      16      64
CTRIA3       108     773     167      48     130
CTRIA3       109     773     168       7      66
CTRIA3       110     773      48     168     131
CTRIA3       111     773      67     169      79
CTRIA3       112     773       1     169     148
CTRIA3       113     773     170      67     150
CTRIA3       114     773      28     170     150
CTRIA3       115     773      67     171     169
CTRIA3       116     773     171      56     148
CTRIA3       117     773     171     148     169
CTRIA3       118     773       8     172      82
CTRIA3       119     773      68     173     172
CTRIA3       120     773     173     245      82
CTRIA3       121     773     173      82     172
CTRIA3       122     773     176      24     174
CTRIA3       123     773     177      69     176
CTRIA3       124     773     174     177     176
CTRIA3       125     773      68     177     174
CTRIA3       126     773       2     178     165
CTRIA3       127     773     179      70      73
CTRIA3       128     773     179      26      75
CTRIA3       129     773     181       8      82
CTRIA3       130     773     182      71     181
CTRIA3       131     773      82     182     181
CTRIA3       132     773     245     182      82
CTRIA3       133     773     183      62     162
CTRIA3       134     773     115     178       2
CTRIA3       135     773      42     184     123
CTRIA3       136     773      41     185      73
CTRIA3       137     773      73     185     179
CTRIA3       138     773     186      71     180
CTRIA3       139     773      25     186     180
CTRIA3       140     773     186      25      75
CTRIA3       141     773      27     187      76
CTRIA3       142     773     187      27      78
CTRIA3       143     773     149     169       1
CTRIA3       144     773     169     149      79
CTRIA3       145     773       7     189      80
CTRIA3       146     773     189       7     168
CTRIA3       147     773      48     189     168
CTRIA3       148     773     190      46      45
CTRIA3       149     773     190      45      85
CTRIA3       150     773     191      32      93
CTRIA3       151     773     101     192      91
CTRIA3       152     773     192      31      91
CTRIA3       153     773     192      11      95
CTRIA3       154     773      11     192     101
CTRIA3       155     773      33     192      95
CTRIA3       156     773      31     192      33
CTRIA3       157     773      12     195     100
CTRIA3       158     773     196      12      54
CTRIA3       159     773     196      54     144
CTRIA3       160     773      12     196     101
CTRIA3       161     773     197      30     104
CTRIA3       162     773      30     197      87
CTRIA3       163     773     198       6     107
CTRIA3       164     773       6     198      76
CTRIA3       165     773      36     199     107
CTRIA3       166     773     200      57     111
CTRIA3       167     773     108     200     110
CTRIA3       168     773      20     200     108
CTRIA3       169     773     200      20      57
CTRIA3       170     773      37     200     111
CTRIA3       171     773     200      37     110
CTRIA3       172     773     104     201     197
CTRIA3       173     773      38     201     113
CTRIA3       174     773      37     202     114
CTRIA3       175     773     202      37     111
CTRIA3       176     773     203     114     202
CTRIA3       177     773     204      39     116
CTRIA3       178     773     204      41     115
CTRIA3       179     773      11     205      95
CTRIA3       180     773     205      15     118
CTRIA3       181     773      43     205     118
CTRIA3       182     773     205      43      95
CTRIA3       183     773     205      11     206
CTRIA3       184     773      15     205     206
CTRIA3       185     773      40     207     121
CTRIA3       186     773     207      40     120
CTRIA3       187     773      77     208     187
CTRIA3       188     773     208      76     187
CTRIA3       189     773       6     208     125
CTRIA3       190     773     208       6      76
CTRIA3       191     773      42     209     125
CTRIA3       192     773      20     209     122
CTRIA3       193     773     209      42     124
CTRIA3       194     773     122     209     124
CTRIA3       195     773     209      20      58
CTRIA3       196     773     209      58     125
CTRIA3       197     773     210       2     126
CTRIA3       198     773       2     210      96
CTRIA3       199     773     211      72     183
CTRIA3       200     773      47     211     127
CTRIA3       201     773     162     211     183
CTRIA3       202     773     211      47      63
CTRIA3       203     773      98     212     129
CTRIA3       204     773      34     212      98
CTRIA3       205     773     213      49     128
CTRIA3       206     773     214      49     131
CTRIA3       207     773     214     131     168
CTRIA3       208     773     214      23     128
CTRIA3       209     773      49     214     128
CTRIA3       210     773      66     214     168
CTRIA3       211     773      23     214      66
CTRIA3       212     773     215      23      66
CTRIA3       213     773      65     215     133
CTRIA3       214     773      23     215      65
CTRIA3       215     773     216      17     137
CTRIA3       216     773      10     217     138
CTRIA3       217     773      30     218      88
CTRIA3       218     773     218      30      87
CTRIA3       219     773     218      87     139
CTRIA3       220     773     138     219     139
CTRIA3       221     773      18     221     143
CTRIA3       222     773     221      18     146
CTRIA3       223     773     140     222     221
CTRIA3       224     773      53     222     142
CTRIA3       225     773     222      53     143
CTRIA3       226     773     222     143     221
CTRIA3       227     773     223     140     221
CTRIA3       228     773     223      55     147
CTRIA3       229     773     146     223     221
CTRIA3       230     773      55     223     146
CTRIA3       231     773      51     224     151
CTRIA3       232     773     224      51     135
CTRIA3       233     773     225      28     153
CTRIA3       234     773     225      24     170
CTRIA3       235     773      28     225     170
CTRIA3       236     773       9     226     154
CTRIA3       237     773     227      59     154
CTRIA3       238     773      80     228     158
CTRIA3       239     773     228     155     157
CTRIA3       240     773     228      29     155
CTRIA3       241     773      29     228      80
CTRIA3       242     773     228      60     158
CTRIA3       243     773      60     228     157
CTRIA3       244     773     229     151     224
CTRIA3       245     773     229      61     160
CTRIA3       246     773     230      60     161
CTRIA3       247     773      60     230     158
CTRIA3       248     773      61     231     161
CTRIA3       249     773     231      61     159
CTRIA3       250     773     232       9     163
CTRIA3       251     773     233      62     164
CTRIA3       252     773      62     233     162
CTRIA3       253     773     234     165     178
CTRIA3       254     773      73     234     178
CTRIA3       255     773      70     234      73
CTRIA3       256     773      70     235     234
CTRIA3       257     773     235      25     166
CTRIA3       258     773      25     235      75
CTRIA3       259     773      64     236     167
CTRIA3       260     773      22     236      64
CTRIA3       261     773      67     237     171
CTRIA3       262     773     237      67     170
CTRIA3       263     773     237      24     176
CTRIA3       264     773      24     237     170
CTRIA3       265     773     238      69     175
CTRIA3       266     773     238     171     237
CTRIA3       267     773     176     238     237
CTRIA3       268     773      69     238     176
CTRIA3       269     773     239     245     173
CTRIA3       270     773     240      68     174
CTRIA3       271     773      68     240     173
CTRIA3       272     773     241      19     175
CTRIA3       273     773      19     241     106
CTRIA3       274     773      68     242     177
CTRIA3       275     773     242      68     172
CTRIA3       276     773      69     280     175
CTRIA3       277     773      25     243     166
CTRIA3       278     773     243      72     166
CTRIA3       279     773     244      77     187
CTRIA3       280     773      78     244     187
CTRIA3       281     773     244       8     181
CTRIA3       282     773       8     244      78
CTRIA3       283     773     246      71     182
CTRIA3       284     773      71     246     180
CTRIA3       285     773     247      62     183
CTRIA3       286     773      62     247     163
CTRIA3       287     773     248      74     185
CTRIA3       288     773      74     248     184
CTRIA3       289     773     248      14     123
CTRIA3       290     773     248     123     184
CTRIA3       291     773     249      74     184
CTRIA3       292     773      26     249     188
CTRIA3       293     773     249      26      74
CTRIA3       294     773      75     250     186
CTRIA3       295     773     250      26     188
CTRIA3       296     773      26     250      75
CTRIA3       297     773      77     250     188
CTRIA3       298     773     251      80     189
CTRIA3       299     773      29     251     164
CTRIA3       300     773     251      29      80
CTRIA3       301     773      46     252      45
CTRIA3       302     773     254     305      90
CTRIA3       303     773     254      90      96
CTRIA3       304     773     256     101     196
CTRIA3       305     773     257      27      76
CTRIA3       306     773     257      76     198
CTRIA3       307     773     104     258     201
CTRIA3       308     773      35     258     104
CTRIA3       309     773     258      35     103
CTRIA3       310     773      13     258     103
CTRIA3       311     773     258      13     113
CTRIA3       312     773     258     113     201
CTRIA3       313     773      38     259     201
CTRIA3       314     773     259      38     112
CTRIA3       315     773     259     197     201
CTRIA3       316     773     259      87     197
CTRIA3       317     773      84     260      85
CTRIA3       318     773     260      84      86
CTRIA3       319     773     190     260     203
CTRIA3       320     773      85     260     190
CTRIA3       321     773      38     261     112
CTRIA3       322     773     261     203     260
CTRIA3       323     773     261      38     114
CTRIA3       324     773     261     114     203
CTRIA3       325     773      86     261     260
CTRIA3       326     773     262     190     203
CTRIA3       327     773     202     262     203
CTRIA3       328     773     111     262     202
CTRIA3       329     773       4     262     111
CTRIA3       330     773     262       4      46
CTRIA3       331     773     120     263     207
CTRIA3       332     773      42     264     184
CTRIA3       333     773     184     264     249
CTRIA3       334     773     264      42     125
CTRIA3       335     773     264     125     208
CTRIA3       336     773      34     265     212
CTRIA3       337     773     265      34      99
CTRIA3       338     773     265      99     100
CTRIA3       339     773     266      88     218
CTRIA3       340     773      88     266     136
CTRIA3       341     773     267      52     220
CTRIA3       342     773      52     268     220
CTRIA3       343     773     269     142     222
CTRIA3       344     773      84     269      86
CTRIA3       345     773     147     270     223
CTRIA3       346     773      50     270     147
CTRIA3       347     773     270      50     134
CTRIA3       348     773     271     153     227
CTRIA3       349     773     153     271     225
CTRIA3       350     773     272      79     151
CTRIA3       351     773     272     151     229
CTRIA3       352     773      79     272     150
CTRIA3       353     773     160     272     229
CTRIA3       354     773      21     272     160
CTRIA3       355     773     224     273     229
CTRIA3       356     773     273      61     229
CTRIA3       357     773      61     273     159
CTRIA3       358     773     135     273     224
CTRIA3       359     773     274     158     230
CTRIA3       360     773     274       7     158
CTRIA3       361     773       7     274      66
CTRIA3       362     773     159     275     231
CTRIA3       363     773     276     161     231
CTRIA3       364     773     161     276     230
CTRIA3       365     773     277     234     235
CTRIA3       366     773     166     277     235
CTRIA3       367     773      63     277     166
CTRIA3       368     773     277      63     126
CTRIA3       369     773     277     126     165
CTRIA3       370     773     277     165     234
CTRIA3       371     773     278      56     171
CTRIA3       372     773     278     171     238
CTRIA3       373     773      56     278     103
CTRIA3       374     773     175     278     238
CTRIA3       375     773      19     278     175
CTRIA3       376     773     278      19     103
CTRIA3       377     773     172     279     242
CTRIA3       378     773       8     279     172
CTRIA3       379     773     279       8      78
CTRIA3       380     773     175     280     241
CTRIA3       381     773     281     177     242
CTRIA3       382     773     282      71     186
CTRIA3       383     773     282     186     250
CTRIA3       384     773     181     282     244
CTRIA3       385     773      71     282     181
CTRIA3       386     773     283     180     246
CTRIA3       387     773     116     284     204
CTRIA3       388     773     284      41     204
CTRIA3       389     773     284      14     248
CTRIA3       390     773      14     284     116
CTRIA3       391     773     185     284     248
CTRIA3       392     773      41     284     185
CTRIA3       393     773     233     285     236
CTRIA3       394     773     285     167     236
CTRIA3       395     773     285      48     167
CTRIA3       396     773     189     285     251
CTRIA3       397     773      48     285     189
CTRIA3       398     773      46     286     252
CTRIA3       399     773     286     121     207
CTRIA3       400     773     286       4     121
CTRIA3       401     773       4     286      46
CTRIA3       402     773     130      16     167
CTRIA3       403     773     287      16     253
CTRIA3       404     773      16     287      64
CTRIA3       405     773      22     287     127
CTRIA3       406     773     287      22      64
CTRIA3       407     773     129     289     213
CTRIA3       408     773     253     290     255
CTRIA3       409     773      49     290     130
CTRIA3       410     773     290      16     130
CTRIA3       411     773      16     290     253
CTRIA3       412     773     255     290     289
CTRIA3       413     773     290      49     213
CTRIA3       414     773     290     213     289
CTRIA3       415     773     291      53     141
CTRIA3       416     773     291      32     256
CTRIA3       417     773      53     291     144
CTRIA3       418     773     196     291     256
CTRIA3       419     773     144     291     196
CTRIA3       420     773     198     292     257
CTRIA3       421     773     292     107     199
CTRIA3       422     773     107     292     198
CTRIA3       423     773     293     191     252
CTRIA3       424     773     293     252     286
CTRIA3       425     773     206     293     263
CTRIA3       426     773     191     293     206
CTRIA3       427     773     207     293     286
CTRIA3       428     773     293     207     263
CTRIA3       429     773     129     294     289
CTRIA3       430     773     294     129     212
CTRIA3       431     773     295     139     219
CTRIA3       432     773     218     295     266
CTRIA3       433     773     139     295     218
CTRIA3       434     773     296     140     223
CTRIA3       435     773     296     223     270
CTRIA3       436     773     220     296     267
CTRIA3       437     773     140     296     220
CTRIA3       438     773     140     297     222
CTRIA3       439     773     222     297     269
CTRIA3       440     773     297     140     220
CTRIA3       441     773     297     220     268
CTRIA3       442     773     174     298     240
CTRIA3       443     773     298     225     271
CTRIA3       444     773     298      24     225
CTRIA3       445     773      24     298     174
CTRIA3       446     773     227     299     271
CTRIA3       447     773     154     299     227
CTRIA3       448     773     299     154     226
CTRIA3       449     773     134     300     275
CTRIA3       450     773      50     300     134
CTRIA3       451     773      78     301     279
CTRIA3       452     773      27     301      78
CTRIA3       453     773     183     302     247
CTRIA3       454     773     302     243     283
CTRIA3       455     773     302      72     243
CTRIA3       456     773      72     302     183
CTRIA3       457     773     246     303     283
CTRIA3       458     773     283     303     302
CTRIA3       459     773     182     303     246
CTRIA3       460     773     303     182     245
CTRIA3       461     773     304     127     287
CTRIA3       462     773     253     304     287
CTRIA3       463     773     194     304     253
CTRIA3       464     773     193     304     254
CTRIA3       465     773     304     194     254
CTRIA3       466     773     305     194     288
CTRIA3       467     773     194     305     254
CTRIA3       468     773     199     306     292
CTRIA3       469     773     306     106     241
CTRIA3       470     773     106     306     199
CTRIA3       471     773     255     307     288
CTRIA3       472     773     307     255     289
CTRIA3       473     773     307     289     294
CTRIA3       474     773     219     309     295
CTRIA3       475     773     137     309     267
CTRIA3       476     773     309      52     267
CTRIA3       477     773      52     309     219
CTRIA3       478     773     310     266     295
CTRIA3       479     773     310     295     309
CTRIA3       480     773     310      51     136
CTRIA3       481     773     310     136     266
CTRIA3       482     773      51     310     135
CTRIA3       483     773     137     310     309
CTRIA3       484     773     135     310     137
CTRIA3       485     773     270     311     296
CTRIA3       486     773     137     311     216
CTRIA3       487     773     134     311     270
CTRIA3       488     773     311     134     216
CTRIA3       489     773     311     137     267
CTRIA3       490     773     311     267     296
CTRIA3       491     773     312     269     297
CTRIA3       492     773     312     138     217
CTRIA3       493     773     312      86     269
CTRIA3       494     773      86     312     217
CTRIA3       495     773     268     312     297
CTRIA3       496     773     138     312     268
CTRIA3       497     773     226     313     299
CTRIA3       498     773     313      83     239
CTRIA3       499     773      83     313     226
CTRIA3       500     773     133     314     300
CTRIA3       501     773     314     133     215
CTRIA3       502     773     231     315     276
CTRIA3       503     773     315     231     275
CTRIA3       504     773     315     275     300
CTRIA3       505     773     315     300     314
CTRIA3       506     773     316     279     301
CTRIA3       507     773     242     316     281
CTRIA3       508     773     316     242     279
CTRIA3       509     773     245     317     303
CTRIA3       510     773      83     317     245
CTRIA3       511     773     317      83     232
CTRIA3       512     773     317     247     302
CTRIA3       513     773     317     302     303
CTRIA3       514     773     305     318      97
CTRIA3       515     773     318     288     307
CTRIA3       516     773     288     318     305
CTRIA3       517     773     318     294     308
CTRIA3       518     773     294     318     307
CTRIA3       519     773     319     240     298
CTRIA3       520     773     319     299     313
CTRIA3       521     773     319     271     299
CTRIA3       522     773     271     319     298
CTRIA3       523     773     239     319     313
CTRIA3       524     773     215     320     314
CTRIA3       525     773     320     230     276
CTRIA3       526     773     230     320     274
CTRIA3       527     773     320     276     315
CTRIA3       528     773     314     320     315
CTRIA3       529     773     321     280     281
CTRIA3       530     773     321     281     316
CTRIA3       531     773     322     280     321
CTRIA3       532     773     241     322     306
CTRIA3       533     773     322     241     280
CTRIA3       534     773     323     257     292
CTRIA3       535     773     323     292     306
CTRIA3       536     773     323     306     322
CTRIA3       537     773     323      27     257
CTRIA3       538     773     301     324     316
CTRIA3       539     773     316     324     321
CTRIA3       540     773     324      27     323
CTRIA3       541     773      27     324     301
CTRIA3       542     773     322     324     323
CTRIA3       543     773     321     324     322
CTRIA3       544     773     245     239      83
CTRIA3       545     773     226     232      83
CTRIA3       546     773     232     226       9
CTRIA3       547     773     112     217      10
CTRIA3       548     773      92     191     206
CTRIA3       549     773     191      92      32
CTRIA3       550     773     195      91      97
CTRIA3       551     773      91     195      12
CTRIA3       552     773     129     145      98
CTRIA3       553     773      34     146      99
CTRIA3       554     773     146      34      55
CTRIA3       555     773     256      92     101
CTRIA3       556     773      92     256      32
CTRIA3       557     773      30     102     104
CTRIA3       558     773     102      30      88
CTRIA3       559     773     199     105     106
CTRIA3       560     773     105     199      36
CTRIA3       561     773     261     217     112
CTRIA3       562     773     217     261      86
CTRIA3       563     773      10     259     112
CTRIA3       564     773     259      10      87
CTRIA3       565     773     117     204     115
CTRIA3       566     773     204     117      39
CTRIA3       567     773      41     178     115
CTRIA3       568     773     178      41      73
CTRIA3       569     773      94      39     117
CTRIA3       570     773      39      94      43
CTRIA3       571     773       5     213     128
CTRIA3       572     773     213     145     129
CTRIA3       573     773     145     213       5
CTRIA3       574     773     132      65     133
CTRIA3       575     773      65     132       5
CTRIA3       576     773     275     216     134
CTRIA3       577     773     139      10     138
CTRIA3       578     773      10     139      87
CTRIA3       579     773     268     219     138
CTRIA3       580     773     219     268      52
CTRIA3       581     773     269      84     142
CTRIA3       582     773     272      28     150
CTRIA3       583     773      28     272      21
CTRIA3       584     773     149      51     151
CTRIA3       585     773      51     149     136
CTRIA3       586     773     152     227     153
CTRIA3       587     773     227     152      59
CTRIA3       588     773     273      17     159
CTRIA3       589     773      17     273     135
CTRIA3       590     773      74     179     185
CTRIA3       591     773     179      74      26
CTRIA3       592     773     262      46     190
CTRIA3       593     773      93     252     191
CTRIA3       594     773     252      93      45
CTRIA3       595     773     263      15     206
CTRIA3       596     773      15     263     120
CTRIA3       597     773     162     127     211
CTRIA3       598     773     127     162      22
CTRIA3       599     773      63      72     211
CTRIA3       600     773      72      63     166
CTRIA3       601     773      70      75     235
CTRIA3       602     773      75      70     179
CTRIA3       603     773      22     233     236
CTRIA3       604     773     233      22     162
CTRIA3       605     773      69     281     280
CTRIA3       606     773     281      69     177
CTRIA3       607     773     264     188     249
CTRIA3       608     773      77     282     250
CTRIA3       609     773     282      77     244
CTRIA3       610     773      96     193     254
CTRIA3       611     773     193      96     210
CTRIA3       612     773     159     216     275
CTRIA3       613     773     216     159      17
CTRIA3       614     773     243     180     283
CTRIA3       615     773     180     243      25
CTRIA3       616     773     233     251     285
CTRIA3       617     773     251     233     164
CTRIA3       618     773     194     255     288
CTRIA3       619     773     255     194     253
CTRIA3       620     773     141      32     291
CTRIA3       621     773      32     141      93
CTRIA3       622     773     212     308     294
CTRIA3       623     773     308     212     265
CTRIA3       624     773     232     247     317
CTRIA3       625     773     247     232     163
CTRIA3       626     773     308      97     318
CTRIA3       627     773      97     308     195
CTRIA3       628     773     239     240     319
CTRIA3       629     773     240     239     173
CTRIA3       630     773     215     274     320
CTRIA3       631     773     274     215      66
CTRIA3       632     773     133      50     132
CTRIA3       633     773      50     133     300
CTRIA3       634     773     188     208      77
CTRIA3       635     773     208     188     264
CTRIA3       636     773     148      35     102
CTRIA3       637     773      35     148      56
CTRIA3       638     773      47     126      63
CTRIA3       639     773     265     195     308
CTRIA3       640     773     195     265     100
CTRIA3       641     773     210      47     193
CTRIA3       642     773      47     210     126
CTRIA3       643     773     193     127     304
CTRIA3       644     773     127     193      47
ENDDATA